<?xml version="1.0" standalone="no"?>
<!DOCTYPE svg PUBLIC "-//W3C//DTD SVG 20010904//EN"
 "http://www.w3.org/TR/2001/REC-SVG-20010904/DTD/svg10.dtd">
<svg version="1.0" xmlns="http://www.w3.org/2000/svg"
 width="400.000000pt" height="400.000000pt" viewBox="0 0 400.000000 400.000000"
 preserveAspectRatio="xMidYMid meet">
<metadata>
Created by potrace 1.14, written by Peter Selinger 2001-2017
</metadata>
<g transform="translate(0.000000,400.000000) scale(0.100000,-0.100000)"
fill="#000000" stroke="none">
<path d="M1905 3070 c-45 -5 -109 -16 -144 -25 -65 -17 -194 -65 -189 -70 2
-2 35 7 74 20 111 36 210 48 346 42 222 -10 410 -85 585 -234 98 -84 215 -248
258 -363 17 -46 135 -184 135 -158 0 28 -31 131 -60 199 -166 391 -577 631
-1005 589z"/>
<path d="M1745 2975 c-304 -67 -555 -281 -664 -565 -16 -41 -32 -91 -36 -110
l-7 -35 51 50 c38 36 64 76 96 144 72 150 176 276 298 360 77 53 225 118 310
136 43 10 122 21 175 25 l97 7 -130 1 c-73 0 -156 -6 -190 -13z"/>
<path d="M2098 2973 c6 -2 18 -2 25 0 6 3 1 5 -13 5 -14 0 -19 -2 -12 -5z"/>
<path d="M1994 2597 c-5 -9 -43 -50 -84 -92 l-74 -77 -231 46 c-126 26 -232
46 -235 46 -4 0 -111 -112 -239 -250 -216 -231 -236 -250 -267 -250 -27 0 -34
-4 -34 -20 0 -20 7 -20 323 -20 l322 0 225 240 c124 133 243 261 265 286 l40
45 265 -285 265 -285 323 0 c316 -1 322 -1 322 19 0 16 -7 20 -32 20 -30 0
-54 23 -266 250 -129 138 -240 250 -249 250 -8 0 -114 -21 -236 -47 l-222 -46
-86 93 c-69 73 -89 89 -95 77z m-500 -263 l127 -135 -59 -67 c-111 -125 -71
-113 -364 -110 l-256 3 207 222 c113 122 209 222 212 222 3 1 63 -60 133 -135z
m1337 -54 c94 -102 188 -202 207 -222 l36 -38 -260 0 -259 0 -82 88 -81 89
126 137 c69 75 129 135 133 134 4 -2 85 -86 180 -188z"/>
<path d="M401 1712 c-47 -23 -72 -61 -78 -114 -10 -91 49 -158 140 -158 86 0
137 46 137 125 l0 35 -65 0 -65 0 0 -30 c0 -25 4 -30 25 -30 30 0 32 -15 4
-30 -24 -14 -61 -6 -83 16 -20 20 -21 83 0 112 18 26 75 30 94 7 7 -8 28 -15
47 -15 30 0 34 3 31 23 -2 12 -9 21 -16 19 -8 -1 -11 2 -8 7 3 5 0 14 -8 20
-11 9 -13 6 -11 -12 2 -19 -2 -23 -24 -21 -43 3 -47 4 -31 14 8 5 24 7 35 4
14 -5 17 -3 10 5 -15 15 -110 -2 -136 -25 -12 -10 -25 -28 -30 -39 -5 -13 -8
-15 -8 -5 -1 34 58 80 104 80 21 0 26 3 16 9 -11 7 -10 10 5 14 11 3 4 5 -16
6 -19 0 -50 -7 -69 -17z m19 -224 c19 -10 28 -18 20 -18 -39 0 -91 68 -90 117
1 10 9 -4 18 -32 13 -39 25 -54 52 -67z m148 65 c4 -28 -44 -79 -83 -87 -22
-5 -26 -4 -15 4 8 5 23 10 32 10 20 0 58 46 58 71 0 12 -10 20 -30 23 -30 6
-30 6 3 4 24 -2 33 -8 35 -25z"/>
<path d="M764 1717 c-2 -7 -3 -71 -2 -143 l3 -129 90 0 c90 0 90 0 93 26 3 22
-2 28 -23 33 -15 4 -32 2 -39 -3 -9 -7 -16 -7 -24 1 -9 9 -12 9 -12 0 0 -14
-26 -16 -34 -3 -4 5 -2 20 3 33 9 22 10 22 12 -7 l1 -30 7 30 c3 17 13 31 21
31 8 1 27 2 43 3 23 1 27 5 27 31 0 29 -2 30 -45 30 -38 0 -45 3 -45 20 0 17
7 20 50 20 48 0 50 1 50 29 0 36 -13 41 -101 41 -48 0 -71 -4 -75 -13z m96
-26 l-55 -6 0 -45 0 -45 50 -4 50 -5 -50 -5 -50 -6 0 -45 0 -45 55 -6 55 -6
-57 -1 c-55 -2 -58 -1 -64 26 -9 44 -12 49 -13 21 -1 -30 17 -56 44 -62 11 -3
3 -5 -17 -6 l-38 -1 0 50 c0 28 5 50 10 50 6 0 10 26 10 59 0 88 3 91 69 89
l56 -1 -55 -6z"/>
<path d="M1122 1722 c-9 -6 -12 -42 -10 -143 l3 -134 35 0 c33 0 35 2 38 38 4
51 31 50 61 -3 20 -36 26 -40 62 -40 46 0 47 7 15 59 -24 38 -24 38 -5 67 28
42 24 88 -9 125 -26 29 -34 32 -103 36 -41 2 -80 0 -87 -5z m175 -36 c11 -11
12 -119 1 -133 -6 -7 -4 -22 6 -42 9 -16 16 -36 15 -43 0 -7 -4 -3 -10 10 -5
13 -13 21 -18 17 -6 -3 -10 3 -10 12 -1 39 -5 53 -13 53 -4 0 -8 -3 -8 -7 0
-5 -24 -8 -52 -8 -53 0 -53 0 -59 -35 -4 -22 -7 2 -8 62 -1 132 -3 130 80 126
38 -2 72 -8 76 -12z m-107 -155 c0 -5 -6 -11 -13 -14 -8 -3 -14 1 -14 9 0 8 6
14 14 14 7 0 13 -4 13 -9z m85 -9 c2 -7 0 -10 -5 -7 -14 9 -12 -7 4 -28 9 -11
16 -14 19 -7 3 6 5 6 3 -2 -5 -25 -24 -18 -45 16 -12 19 -30 37 -39 39 -9 3 0
5 20 4 21 -1 40 -7 43 -15z"/>
<path d="M1154 1677 c-3 -8 -4 -36 -2 -63 l3 -49 70 0 70 0 1 58 c0 32 -4 61
-9 64 -6 4 -7 1 -2 -7 6 -10 4 -11 -11 -5 -10 5 -40 10 -66 13 -36 3 -49 0
-54 -11z m104 -14 c0 -5 2 -16 7 -26 10 -24 -12 -47 -46 -47 -26 0 -29 3 -29
34 0 32 3 35 33 39 17 2 33 5 35 5 1 1 1 -1 0 -5z m-43 -86 c13 -4 9 -5 -9 -4
-16 1 -32 9 -34 17 -4 12 -2 13 9 4 8 -7 23 -14 34 -17z"/>
<path d="M1514 1717 c-2 -7 -3 -71 -2 -143 l3 -129 33 -3 c31 -3 32 -2 32 33
0 28 5 38 23 45 12 5 16 9 9 9 -7 1 -21 -3 -31 -8 -13 -7 -18 -6 -18 3 0 8 15
13 40 14 59 3 59 12 -1 12 l-51 0 -4 -42 c-2 -24 -3 9 -3 72 l1 115 73 1 c54
1 75 -3 85 -14 10 -13 9 -14 -2 -7 -11 6 -13 4 -6 -11 11 -24 11 -54 0 -78 -6
-14 -5 -17 3 -12 15 9 16 -6 1 -21 -9 -9 -6 -22 9 -51 16 -31 17 -40 7 -38 -8
1 -18 6 -22 11 -4 4 -2 5 5 1 6 -4 12 -3 12 2 0 15 -26 33 -35 24 -5 -4 -6 0
-3 9 4 9 1 16 -8 16 -10 0 -10 -7 4 -30 13 -23 14 -31 4 -34 -6 -3 -10 -9 -6
-14 6 -10 84 -13 84 -3 0 3 -12 26 -26 50 -25 42 -25 46 -10 63 9 10 19 34 22
52 11 74 -48 119 -154 119 -42 0 -64 -4 -68 -13z"/>
<path d="M1981 1668 c-16 -35 -45 -98 -65 -142 -20 -43 -36 -80 -36 -82 0 -2
15 -4 33 -4 21 0 41 8 52 20 13 14 31 20 62 20 31 0 48 -6 60 -20 11 -12 30
-20 50 -20 18 0 33 2 33 4 0 2 -29 66 -64 142 -39 86 -70 140 -80 142 -11 3
-24 -15 -45 -60z m64 26 c9 -15 12 -23 6 -20 -19 12 -12 -8 35 -110 31 -67 39
-92 25 -77 -12 12 -21 28 -21 35 0 16 -57 138 -64 138 -3 0 -17 -21 -30 -47
-14 -27 -25 -44 -26 -40 0 4 14 34 30 67 32 64 36 75 20 65 -5 -3 -10 -1 -10
4 0 19 17 12 35 -15z m0 -131 c5 -20 3 -23 -19 -23 -30 0 -30 0 -14 35 12 27
22 24 33 -12z m-80 -23 c-4 -13 -2 -20 7 -20 7 0 4 -6 -7 -12 -29 -16 -31 -18
-18 -26 7 -5 7 -11 -3 -20 -8 -7 -14 -8 -14 -2 0 5 -5 10 -11 10 -5 0 -7 -6
-3 -12 5 -10 4 -10 -5 -2 -6 6 -9 19 -5 28 4 12 9 14 14 6 4 -6 14 6 25 30 19
42 31 54 20 20z"/>
<path d="M2373 1723 c-7 -2 -13 -10 -13 -18 0 -9 13 -12 43 -10 23 1 29 0 12
-2 -72 -11 -88 -78 -25 -100 22 -8 28 -12 15 -12 -50 -2 -78 45 -55 90 8 13 7
19 0 19 -6 0 -8 6 -5 13 4 6 -3 1 -14 -12 -50 -56 -12 -127 75 -139 34 -5 50
-12 52 -24 5 -25 -42 -34 -73 -14 -30 20 -75 21 -75 2 0 -46 44 -76 112 -76
83 0 134 58 105 120 -12 24 -49 41 -119 55 -32 6 -37 30 -10 44 13 7 27 6 46
-5 78 -40 108 10 36 59 -23 16 -80 21 -107 10z m108 -153 c19 -11 26 -54 11
-77 -21 -34 -107 -39 -132 -8 -9 11 -5 11 19 -1 51 -25 111 -3 111 41 0 25
-15 40 -45 48 -17 4 -18 5 -2 6 10 0 27 -4 38 -9z"/>
<path d="M2674 1716 c-12 -31 1 -51 33 -54 l32 -3 3 -107 c3 -103 4 -107 26
-108 18 -1 19 -1 2 3 -13 3 -20 12 -20 29 0 13 4 24 9 24 5 0 10 42 10 94 l1
95 -33 4 c-17 2 2 4 43 4 49 0 63 -2 40 -6 l-35 -6 -5 -110 c-3 -60 -4 -112
-3 -114 8 -13 14 15 16 73 0 36 3 66 4 66 2 0 8 -10 13 -22 9 -21 10 -21 9 7
-2 70 -1 74 33 77 36 3 49 28 28 53 -18 21 -198 21 -206 1z"/>
<path d="M3111 1668 c-16 -35 -45 -98 -65 -142 -20 -43 -36 -80 -36 -82 0 -2
15 -4 33 -4 21 0 41 8 52 20 13 14 31 20 62 20 31 0 48 -6 60 -20 11 -12 30
-20 50 -20 18 0 33 2 33 4 0 2 -29 66 -64 142 -39 86 -70 140 -80 142 -11 3
-24 -15 -45 -60z m64 26 c9 -15 12 -23 6 -20 -19 12 -12 -8 35 -110 31 -67 39
-92 25 -77 -12 12 -21 28 -21 35 0 16 -57 138 -64 138 -3 0 -17 -21 -30 -47
-14 -27 -25 -44 -26 -40 0 4 14 34 30 67 32 64 36 75 20 65 -5 -3 -10 -1 -10
4 0 19 17 12 35 -15z m0 -131 c5 -20 3 -23 -19 -23 -30 0 -30 0 -14 35 12 27
22 24 33 -12z m-80 -23 c-4 -13 -2 -20 7 -20 7 0 4 -6 -7 -12 -29 -16 -31 -18
-18 -26 7 -5 7 -11 -3 -20 -8 -7 -14 -8 -14 -2 0 5 -5 10 -11 10 -5 0 -7 -6
-3 -12 5 -10 4 -10 -5 -2 -6 6 -9 19 -5 28 4 12 9 14 14 6 4 -6 14 6 25 30 19
42 31 54 20 20z"/>
<path d="M3425 1721 c-3 -5 11 -47 31 -93 41 -94 48 -105 39 -63 l-6 30 14
-24 15 -24 7 22 c6 21 7 22 21 4 13 -17 -42 118 -59 145 -9 14 -53 16 -62 3z
m75 -71 c1 8 8 1 16 -17 7 -18 11 -40 7 -49 -5 -13 -12 -4 -30 36 -13 29 -23
58 -23 64 1 6 7 -2 15 -19 7 -16 14 -23 15 -15z"/>
<path d="M3615 1699 c-9 -17 -14 -37 -11 -45 3 -8 2 -13 -3 -10 -15 9 -32 -53
-21 -74 13 -24 13 -33 0 -25 -12 8 -13 -5 -1 -23 6 -11 9 -10 13 5 3 10 9 27
13 38 6 17 5 18 -5 5 -10 -13 -11 -12 -5 5 21 60 48 125 52 122 2 -3 -5 -28
-17 -56 -24 -61 -24 -61 -7 -61 17 0 72 124 62 139 -14 23 -54 12 -70 -20z"/>
<path d="M1554 1677 c-3 -8 -4 -36 -2 -63 l3 -49 48 -3 c32 -2 47 0 42 7 -3 7
0 8 9 5 9 -3 12 -12 9 -22 -4 -9 -3 -14 1 -10 4 3 9 12 10 20 2 7 9 25 16 40
11 23 10 31 -3 52 -11 16 -13 26 -6 28 6 2 -18 5 -55 6 -50 2 -68 -1 -72 -11z
m101 -52 c0 -28 -3 -30 -37 -30 -38 0 -39 -9 -3 -18 13 -3 8 -5 -13 -6 -33 -1
-33 -1 -26 37 9 51 12 54 47 50 28 -3 32 -7 32 -33z"/>
<path d="M3606 1533 l-17 -37 -29 34 c-27 31 -28 32 -35 11 -3 -12 -11 -19
-16 -16 -4 3 0 -13 10 -37 26 -62 49 -58 84 16 15 32 26 60 24 62 -2 2 -11
-13 -21 -33z m-44 -28 c3 4 9 -3 13 -15 4 -13 2 -27 -5 -34 -10 -8 -11 -6 -5
13 5 15 4 21 -3 17 -6 -3 -14 3 -17 15 -6 17 -9 19 -16 8 -10 -17 -12 -8 -2
16 5 15 7 15 18 -4 6 -12 14 -19 17 -16z"/>
<path d="M2813 1505 c0 -27 2 -38 4 -22 2 15 2 37 0 50 -2 12 -4 0 -4 -28z"/>
<path d="M1040 1235 c0 -38 2 -66 5 -63 8 8 8 118 1 125 -3 4 -6 -24 -6 -62z"/>
<path d="M1621 1238 c0 -38 2 -68 7 -68 4 0 6 21 4 48 -5 82 -9 89 -11 20z"/>
<path d="M2303 1235 c0 -38 2 -53 4 -32 2 20 2 52 0 70 -2 17 -4 1 -4 -38z"/>
<path d="M3151 1238 c0 -38 2 -68 7 -68 4 0 6 21 4 48 -5 82 -9 89 -11 20z"/>
<path d="M1413 1230 c0 -36 2 -50 4 -32 2 17 2 47 0 65 -2 17 -4 3 -4 -33z"/>
<path d="M1464 1266 c0 -13 4 -22 9 -19 10 6 9 31 -2 37 -5 3 -8 -5 -7 -18z"/>
<path d="M2811 1233 c0 -35 2 -63 7 -63 4 0 6 21 4 48 -5 75 -10 82 -11 15z"/>
<path d="M2865 1260 c0 -15 3 -26 8 -23 4 2 7 13 7 23 0 10 -3 21 -7 23 -5 3
-8 -8 -8 -23z"/>
<path d="M681 1269 c0 -8 15 -29 34 -46 19 -17 35 -27 35 -23 0 11 -40 50 -51
50 -4 0 -10 8 -12 18 -4 13 -5 14 -6 1z"/>
<path d="M793 1225 c0 -33 2 -45 4 -27 2 18 2 45 0 60 -2 15 -4 0 -4 -33z"/>
<path d="M2031 1233 c0 -28 2 -54 7 -57 4 -2 6 14 4 37 -5 68 -10 76 -11 20z"/>
<path d="M957 1220 c9 -22 18 -39 19 -37 6 6 -19 77 -27 77 -4 0 0 -18 8 -40z"/>
<path d="M1100 1217 c4 -41 5 -41 8 -8 2 18 0 37 -5 42 -5 5 -6 -11 -3 -34z"/>
<path d="M1158 1221 c9 -22 19 -38 20 -36 6 6 -21 75 -29 75 -4 0 0 -18 9 -39z"/>
<path d="M1830 1217 c0 -26 3 -47 8 -47 9 0 9 76 -1 86 -4 4 -7 -14 -7 -39z"/>
<path d="M1885 1214 c0 -24 3 -44 8 -44 4 0 7 18 7 39 0 22 -3 42 -7 44 -5 3
-8 -15 -8 -39z"/>
<path d="M2100 1217 c0 -26 3 -47 8 -47 8 0 7 78 -2 87 -3 4 -6 -15 -6 -40z"/>
<path d="M2188 1220 c2 -22 6 -40 8 -40 2 0 4 18 4 40 0 22 -3 40 -8 40 -4 0
-6 -18 -4 -40z"/>
<path d="M2241 1218 c-1 -27 3 -48 7 -48 4 0 6 17 4 38 -5 58 -10 62 -11 10z"/>
<path d="M2495 1215 c0 -25 3 -45 8 -45 4 0 7 20 7 45 0 25 -3 45 -7 45 -5 0
-8 -20 -8 -45z"/>
<path d="M2921 1218 c-1 -27 3 -48 7 -48 4 0 6 17 4 38 -5 58 -10 62 -11 10z"/>
<path d="M3046 1247 c3 -10 9 -15 12 -12 3 3 0 11 -7 18 -10 9 -11 8 -5 -6z"/>
<path d="M3100 1241 c-13 -25 -13 -33 3 -54 10 -15 12 -11 12 28 0 25 -1 45
-2 45 -1 0 -7 -9 -13 -19z"/>
<path d="M3308 1223 c5 -59 10 -63 11 -10 1 26 -3 47 -7 47 -4 0 -6 -17 -4
-37z"/>
<path d="M1940 1240 c0 -5 11 -20 25 -34 14 -14 25 -20 25 -14 0 6 -11 21 -25
34 -14 13 -25 19 -25 14z"/>
<path d="M2404 1216 c1 -26 6 -41 16 -43 10 -3 11 -2 3 4 -6 4 -13 24 -16 43
-4 34 -4 33 -3 -4z"/>
<path d="M3004 1216 c1 -25 6 -41 16 -44 12 -4 13 -2 3 9 -6 8 -13 28 -16 44
-4 23 -4 20 -3 -9z"/>
<path d="M3253 1210 c0 -25 2 -35 4 -22 2 12 2 32 0 45 -2 12 -4 2 -4 -23z"/>
<path d="M899 1238 c-5 -16 -3 -61 3 -64 4 -3 8 11 8 30 0 20 -2 36 -5 36 -3
0 -5 -1 -6 -2z"/>
<path d="M1521 1219 c0 -15 7 -33 17 -40 15 -12 16 -12 5 1 -6 8 -13 26 -16
40 l-4 25 -2 -26z"/>
<path d="M1722 1215 c0 -16 2 -22 5 -12 2 9 2 23 0 30 -3 6 -5 -1 -5 -18z"/>
<path d="M1782 1210 c0 -19 2 -27 5 -17 2 9 2 25 0 35 -3 9 -5 1 -5 -18z"/>
<path d="M2551 1219 c0 -15 7 -33 17 -40 15 -12 16 -12 5 1 -6 8 -13 26 -16
40 l-4 25 -2 -26z"/>
<path d="M1461 1210 c0 -8 4 -22 9 -30 12 -18 12 -2 0 25 -6 13 -9 15 -9 5z"/>
<path d="M1651 1215 c0 -13 28 -50 33 -44 3 2 -4 15 -14 29 -11 14 -20 21 -19
15z"/>
<path d="M2336 1195 c9 -14 20 -25 26 -25 11 0 -23 49 -35 50 -4 0 0 -11 9
-25z"/>
<path d="M3204 1199 c-3 -6 -2 -15 3 -20 5 -5 9 -1 9 11 0 23 -2 24 -12 9z"/>
<path d="M850 1185 c0 -8 4 -15 10 -15 5 0 7 7 4 15 -4 8 -8 15 -10 15 -2 0
-4 -7 -4 -15z"/>
</g>
</svg>
